<?xml version="1.0" encoding="UTF-8"?>
<!DOCTYPE svg PUBLIC "-//W3C//DTD SVG 1.1//EN" "http://www.w3.org/Graphics/SVG/1.1/DTD/svg11.dtd">
<!-- Creator: CorelDRAW X7 -->
<svg xmlns="http://www.w3.org/2000/svg" xml:space="preserve" width="5.9479mm" height="5.9402mm" version="1.1" style="shape-rendering:geometricPrecision; text-rendering:geometricPrecision; image-rendering:optimizeQuality; fill-rule:evenodd; clip-rule:evenodd"
viewBox="0 0 102 102"
 xmlns:xlink="http://www.w3.org/1999/xlink">
 <defs>
  <style type="text/css">
   <![CDATA[
    .fil0 {fill:#FEFEFE}
   ]]>
  </style>
 </defs>
 <g id="Слой_x0020_1">
  <metadata id="CorelCorpID_0Corel-Layer"/>
  <path class="fil0" d="M51 66c11,10 21,21 31,31 6,6 12,7 17,2 5,-4 4,-11 -2,-17 -6,-6 -13,-13 -20,-20 -3,-3 -7,-7 -11,-11 3,-3 6,-6 9,-9 8,-8 16,-16 24,-24 4,-4 4,-11 0,-15 -4,-4 -10,-4 -15,0 -1,2 -3,3 -4,4 -9,10 -19,19 -28,29 -3,-2 -4,-3 -6,-5 -9,-8 -17,-17 -26,-26 -6,-6 -12,-7 -17,-2 -4,5 -4,11 2,17 2,2 4,4 6,6 9,8 16,15 25,25l0 0c-9,9 -23,23 -33,33 -4,5 -4,11 0,15 4,4 10,4 15,0 1,-1 3,-3 4,-4 9,-9 19,-19 29,-29z"/>
 </g>
</svg>
