<?xml version="1.0" encoding="UTF-8"?>
<!DOCTYPE svg PUBLIC "-//W3C//DTD SVG 1.1//EN" "http://www.w3.org/Graphics/SVG/1.1/DTD/svg11.dtd">
<!-- Creator: CorelDRAW X7 -->
<svg xmlns="http://www.w3.org/2000/svg" xml:space="preserve" width="7.3012mm" height="11.5425mm" version="1.1" style="shape-rendering:geometricPrecision; text-rendering:geometricPrecision; image-rendering:optimizeQuality; fill-rule:evenodd; clip-rule:evenodd"
viewBox="0 0 148 234"
 xmlns:xlink="http://www.w3.org/1999/xlink">
 <defs>
  <style type="text/css">
   <![CDATA[
    .fil0 {fill:#FEFEFE}
   ]]>
  </style>
 </defs>
 <g id="Слой_x0020_1">
  <metadata id="CorelCorpID_0Corel-Layer"/>
  <path class="fil0" d="M38 144c4,0 8,1 11,1 6,0 13,3 17,7 13,13 27,26 40,39 5,5 10,10 15,15l1 1c2,1 3,2 4,3 0,-2 0,-3 0,-5l0 -180c0,-1 0,-1 0,-2 0,1 -1,1 -1,1l-1 1c-1,1 -1,1 -2,2 -5,4 -9,9 -14,14 -14,13 -28,27 -41,41 -6,5 -12,7 -19,7 0,0 -1,0 -1,0 -3,0 -7,0 -11,0 -3,0 -7,0 -11,0l-2 0c0,0 -1,0 -1,0 0,1 0,1 0,2 0,18 0,35 0,52 0,1 0,1 0,1 0,1 1,1 2,1 2,0 5,0 8,0 2,-1 4,-1 6,-1zm90 90c-5,0 -10,-2 -14,-5 -3,-2 -5,-4 -7,-6l-1 -1c-5,-5 -10,-10 -15,-15 -13,-13 -27,-26 -40,-39 -1,-1 -2,-1 -4,-1 -2,0 -5,-1 -9,-1 -2,0 -4,0 -6,1 -3,0 -6,0 -9,0 -19,-1 -23,-13 -23,-24 0,-17 0,-34 0,-52 0,-15 8,-23 23,-24l1 0c4,0 8,0 12,0 5,0 8,0 12,0 0,0 0,0 0,0 1,0 2,0 3,-1 14,-14 28,-28 42,-41 4,-5 9,-9 14,-14 0,-1 1,-1 2,-2l0 0c3,-3 9,-9 18,-9 3,0 6,1 9,2 12,5 12,18 12,23l0 0 0 180c0,3 0,7 -1,12 -2,10 -10,17 -19,17z"/>
 </g>
</svg>
